<svg xmlns="http://www.w3.org/2000/svg" width="60" height="60"><path fill="#E01E5A" d="M13.3 37.6c0 3.3-2.7 6-6 6s-6-2.7-6-6 2.7-6 6-6h6v6zM16.4 37.6c0-3.3 2.7-6 6-6s6 2.7 6 6v15.1c0 3.3-2.7 6-6 6s-6-2.7-6-6V37.6z" class="st0"/><path fill="#36C5F0" d="M22.4 13.3c-3.3 0-6-2.7-6-6s2.7-6 6-6 6 2.7 6 6v6h-6zM22.4 16.4c3.3 0 6 2.7 6 6s-2.7 6-6 6H7.3c-3.3 0-6-2.7-6-6s2.7-6 6-6h15.1z" class="st1"/><g><path fill="#2EB67D" d="M46.7 22.4c0-3.3 2.7-6 6-6s6 2.7 6 6-2.7 6-6 6h-6v-6zM43.6 22.4c0 3.3-2.7 6-6 6s-6-2.7-6-6V7.3c0-3.3 2.7-6 6-6s6 2.7 6 6v15.1z" class="st2"/></g><g><path fill="#ECB22E" d="M37.6 46.7c3.3 0 6 2.7 6 6s-2.7 6-6 6-6-2.7-6-6v-6h6zM37.6 43.6c-3.3 0-6-2.7-6-6s2.7-6 6-6h15.1c3.3 0 6 2.7 6 6s-2.7 6-6 6H37.6z" class="st3"/></g></svg>